<svg width="18" height="18" viewBox="0 0 18 18" fill="none" xmlns="http://www.w3.org/2000/svg">
<g clip-path="url(#clip0_1007_35712)">
<path d="M13.8889 6.11111V13.8889H6.11111V6.11111H13.8889ZM13.8889 5H6.11111C5.5 5 5 5.5 5 6.11111V13.8889C5 14.5 5.5 15 6.11111 15H13.8889C14.5 15 15 14.5 15 13.8889V6.11111C15 5.5 14.5 5 13.8889 5Z" fill="white"/>
<path d="M10.8889 3.11111V10.8889H3.11111V3.11111H10.8889ZM10.8889 2H3.11111C2.5 2 2 2.5 2 3.11111V10.8889C2 11.5 2.5 12 3.11111 12H10.8889C11.5 12 12 11.5 12 10.8889V3.11111C12 2.5 11.5 2 10.8889 2Z" fill="white"/>
</g>
<defs>
<clipPath id="clip0_1007_35712">
<rect width="18" height="18" fill="white"/>
</clipPath>
</defs>
</svg>
