<svg width="18" height="18" viewBox="0 0 18 18" fill="none" xmlns="http://www.w3.org/2000/svg">
<g clip-path="url(#clip0_1013_35716)">
<path d="M9 5.27273C11.4118 5.27273 13.5627 6.62818 14.6127 8.77273C13.5627 10.9173 11.4182 12.2727 9 12.2727C6.58182 12.2727 4.43727 10.9173 3.38727 8.77273C4.43727 6.62818 6.58818 5.27273 9 5.27273ZM9 4C5.81818 4 3.10091 5.97909 2 8.77273C3.10091 11.5664 5.81818 13.5455 9 13.5455C12.1818 13.5455 14.8991 11.5664 16 8.77273C14.8991 5.97909 12.1818 4 9 4ZM9 7.18182C9.87818 7.18182 10.5909 7.89455 10.5909 8.77273C10.5909 9.65091 9.87818 10.3636 9 10.3636C8.12182 10.3636 7.40909 9.65091 7.40909 8.77273C7.40909 7.89455 8.12182 7.18182 9 7.18182ZM9 5.90909C7.42182 5.90909 6.13636 7.19455 6.13636 8.77273C6.13636 10.3509 7.42182 11.6364 9 11.6364C10.5782 11.6364 11.8636 10.3509 11.8636 8.77273C11.8636 7.19455 10.5782 5.90909 9 5.90909Z" fill="white"/>
</g>
<defs>
<clipPath id="clip0_1013_35716">
<rect width="18" height="18" fill="white"/>
</clipPath>
</defs>
</svg>
